<svg width="76" height="61" viewBox="0 0 76 61" fill="none" xmlns="http://www.w3.org/2000/svg">
<path d="M5 48.1667H19.8639C22.1616 48.1666 24.4238 47.5683 26.4497 46.4248C28.4756 45.2813 30.2025 43.628 31.4772 41.6116L38.5 30.5M63.625 39.3333L72 48.1667L63.625 57V39.3333ZM63.625 4L72 12.8333L63.625 21.6667V4Z" stroke="#FFC300" stroke-width="8" stroke-linecap="round" stroke-linejoin="round"/>
<path d="M5 12.833H19.8639C22.1616 12.833 24.4238 13.4314 26.4497 14.5749C28.4756 15.7184 30.2025 17.3717 31.4772 19.3881L45.5228 41.6113C46.7975 43.6277 48.5244 45.281 50.5503 46.4245C52.5762 47.568 54.8384 48.1663 57.1361 48.1663H66.4167M66.4167 12.833H57.1361C54.8384 12.833 52.5762 13.4314 50.5503 14.5749C48.5244 15.7184 46.7975 17.3717 45.5228 19.3881L44.0833 21.6663" stroke="#FFC300" stroke-width="10" stroke-linecap="round" stroke-linejoin="round"/>
</svg>
