<svg width="41" height="41" viewBox="0 0 41 41" fill="none" xmlns="http://www.w3.org/2000/svg">
<path d="M20.0184 24.9169C18.4608 26.3886 16.4757 27.3911 14.3144 27.7974C12.153 28.2038 9.91248 27.9958 7.87639 27.1998C5.84031 26.4037 4.10018 25.0554 2.87624 23.3254C1.65231 21.5955 0.999587 19.5617 1.00069 17.4814C0.986754 16.6213 1.18486 15.7699 1.57935 14.9945C2.09338 14.0331 2.90454 13.2417 3.90551 12.7251C4.83751 12.2284 5.85016 12 6.59397 12C8.37476 12.0097 9.41941 12.5172 10.2464 13.2882C10.8622 13.8718 11.3385 14.6392 11.7597 15.4899C12.3998 16.7648 12.8863 18.2053 13.7056 19.4113C14.1095 20.0326 14.6543 20.5616 15.3008 20.9605C16.0391 21.3847 16.8907 21.6007 17.7549 21.5828C18.9602 21.5958 20.1541 21.3612 21.2538 20.8952C21.8891 20.6153 22.4774 20.2488 23 19.8077C22.5378 21.7426 21.504 23.5141 20.0184 24.9169Z" fill="#FFC300"/>
<path d="M34.7551 20.4991C36.9975 19.4477 38.8098 17.6768 39.8944 15.4773C40.979 13.2778 41.2713 10.7806 40.7232 8.39596C40.1752 6.01133 38.8194 3.88113 36.8787 2.35534C34.938 0.829552 32.5277 -0.00104948 30.044 9.95187e-07H9.5792V2.12115H30.044C32.3614 2.14446 34.5757 3.06699 36.206 4.68827C37.8363 6.30956 38.7509 8.4986 38.7509 10.7798C38.7509 13.061 37.8363 15.2501 36.206 16.8714C34.5757 18.4927 32.3614 19.4152 30.044 19.4385V21.5588C32.3614 21.5821 34.5757 22.5046 36.206 24.1259C37.8363 25.7472 38.7509 27.9362 38.7509 30.2175C38.7509 32.4987 37.8363 34.6877 36.206 36.309C34.5757 37.9303 32.3614 38.8528 30.044 38.8761H11.7139V27.8698L10.7522 27.7667C8.98741 27.5787 7.30977 26.9143 5.90447 25.8468C4.49916 24.7793 3.42087 23.3504 2.78863 21.7177C2.1564 20.085 1.99483 18.312 2.32174 16.5946C2.64866 14.8772 3.45135 13.2822 4.64119 11.9855H18.9647C20.1066 13.2315 20.8921 14.7534 21.2411 16.3958C21.5901 18.0383 21.49 19.7425 20.9511 21.3345C20.4122 22.9265 19.4538 24.3491 18.1737 25.4573C16.8936 26.5654 15.3377 27.3193 13.6648 27.6419V29.7857C15.8044 29.4513 17.8089 28.543 19.4584 27.1605C21.1078 25.778 22.3384 23.9749 23.0149 21.949C23.6914 19.9232 23.7877 17.753 23.2933 15.6769C22.7989 13.6007 21.7328 11.6987 20.2121 10.1799L19.8961 9.86348H3.7098L3.39383 10.1799C1.89579 11.6761 0.838263 13.5443 0.333978 15.5855C-0.170307 17.6267 -0.102449 19.7644 0.53032 21.7706C1.16309 23.7769 2.33705 25.5765 3.92706 26.9776C5.51708 28.3788 7.46355 29.329 9.55899 29.7269V41H30.0422C32.5273 41.0032 34.9395 40.1738 36.882 38.6481C38.8245 37.1224 40.1816 34.9913 40.7301 32.6054C41.2786 30.2195 40.9858 27.7209 39.8999 25.5206C38.8139 23.3203 36.9995 21.5494 34.7551 20.4991Z" fill="#333333"/>
</svg>
